<mxfile host="Electron" agent="Mozilla/5.0 (Windows NT 10.0; Win64; x64) AppleWebKit/537.36 (KHTML, like Gecko) draw.io/26.2.15 Chrome/134.0.6998.205 Electron/35.2.1 Safari/537.36" version="26.2.15">
  <diagram name="Page-1" id="2YBvvXClWsGukQMizWep">
    <mxGraphModel dx="888" dy="522" grid="1" gridSize="10" guides="1" tooltips="1" connect="1" arrows="1" fold="1" page="1" pageScale="1" pageWidth="850" pageHeight="1100" math="0" shadow="0">
      <root>
        <mxCell id="0" />
        <mxCell id="1" parent="0" />
        <mxCell id="aM9ryv3xv72pqoxQDRHE-1" value="Client" style="shape=umlLifeline;perimeter=lifelinePerimeter;whiteSpace=wrap;html=1;container=0;dropTarget=0;collapsible=0;recursiveResize=0;outlineConnect=0;portConstraint=eastwest;newEdgeStyle={&quot;edgeStyle&quot;:&quot;elbowEdgeStyle&quot;,&quot;elbow&quot;:&quot;vertical&quot;,&quot;curved&quot;:0,&quot;rounded&quot;:0};" parent="1" vertex="1">
          <mxGeometry x="40" y="40" width="100" height="210" as="geometry" />
        </mxCell>
        <mxCell id="aM9ryv3xv72pqoxQDRHE-2" value="" style="html=1;points=[];perimeter=orthogonalPerimeter;outlineConnect=0;targetShapes=umlLifeline;portConstraint=eastwest;newEdgeStyle={&quot;edgeStyle&quot;:&quot;elbowEdgeStyle&quot;,&quot;elbow&quot;:&quot;vertical&quot;,&quot;curved&quot;:0,&quot;rounded&quot;:0};" parent="aM9ryv3xv72pqoxQDRHE-1" vertex="1">
          <mxGeometry x="45" y="60" width="10" height="140" as="geometry" />
        </mxCell>
        <mxCell id="aM9ryv3xv72pqoxQDRHE-5" value="Server 1" style="shape=umlLifeline;perimeter=lifelinePerimeter;whiteSpace=wrap;html=1;container=0;dropTarget=0;collapsible=0;recursiveResize=0;outlineConnect=0;portConstraint=eastwest;newEdgeStyle={&quot;edgeStyle&quot;:&quot;elbowEdgeStyle&quot;,&quot;elbow&quot;:&quot;vertical&quot;,&quot;curved&quot;:0,&quot;rounded&quot;:0};" parent="1" vertex="1">
          <mxGeometry x="180" y="40" width="100" height="210" as="geometry" />
        </mxCell>
        <mxCell id="aM9ryv3xv72pqoxQDRHE-6" value="" style="html=1;points=[];perimeter=orthogonalPerimeter;outlineConnect=0;targetShapes=umlLifeline;portConstraint=eastwest;newEdgeStyle={&quot;edgeStyle&quot;:&quot;elbowEdgeStyle&quot;,&quot;elbow&quot;:&quot;vertical&quot;,&quot;curved&quot;:0,&quot;rounded&quot;:0};" parent="aM9ryv3xv72pqoxQDRHE-5" vertex="1">
          <mxGeometry x="45" y="60" width="10" height="140" as="geometry" />
        </mxCell>
        <mxCell id="MrmqkPRLSG6_IHFLvULn-1" value="Server 2" style="shape=umlLifeline;perimeter=lifelinePerimeter;whiteSpace=wrap;html=1;container=0;dropTarget=0;collapsible=0;recursiveResize=0;outlineConnect=0;portConstraint=eastwest;newEdgeStyle={&quot;edgeStyle&quot;:&quot;elbowEdgeStyle&quot;,&quot;elbow&quot;:&quot;vertical&quot;,&quot;curved&quot;:0,&quot;rounded&quot;:0};" vertex="1" parent="1">
          <mxGeometry x="325" y="40" width="100" height="210" as="geometry" />
        </mxCell>
        <mxCell id="MrmqkPRLSG6_IHFLvULn-2" value="" style="html=1;points=[];perimeter=orthogonalPerimeter;outlineConnect=0;targetShapes=umlLifeline;portConstraint=eastwest;newEdgeStyle={&quot;edgeStyle&quot;:&quot;elbowEdgeStyle&quot;,&quot;elbow&quot;:&quot;vertical&quot;,&quot;curved&quot;:0,&quot;rounded&quot;:0};" vertex="1" parent="MrmqkPRLSG6_IHFLvULn-1">
          <mxGeometry x="45" y="60" width="10" height="40" as="geometry" />
        </mxCell>
        <mxCell id="MrmqkPRLSG6_IHFLvULn-16" style="edgeStyle=elbowEdgeStyle;rounded=0;orthogonalLoop=1;jettySize=auto;html=1;elbow=horizontal;curved=0;" edge="1" parent="MrmqkPRLSG6_IHFLvULn-1" source="MrmqkPRLSG6_IHFLvULn-2" target="MrmqkPRLSG6_IHFLvULn-2">
          <mxGeometry relative="1" as="geometry" />
        </mxCell>
        <mxCell id="MrmqkPRLSG6_IHFLvULn-17" value="Store(1:200)" style="edgeLabel;html=1;align=center;verticalAlign=middle;resizable=0;points=[];" vertex="1" connectable="0" parent="MrmqkPRLSG6_IHFLvULn-16">
          <mxGeometry x="-0.1886" y="2" relative="1" as="geometry">
            <mxPoint x="18" y="5" as="offset" />
          </mxGeometry>
        </mxCell>
        <mxCell id="MrmqkPRLSG6_IHFLvULn-3" value="Server 3" style="shape=umlLifeline;perimeter=lifelinePerimeter;whiteSpace=wrap;html=1;container=0;dropTarget=0;collapsible=0;recursiveResize=0;outlineConnect=0;portConstraint=eastwest;newEdgeStyle={&quot;edgeStyle&quot;:&quot;elbowEdgeStyle&quot;,&quot;elbow&quot;:&quot;vertical&quot;,&quot;curved&quot;:0,&quot;rounded&quot;:0};" vertex="1" parent="1">
          <mxGeometry x="460" y="40" width="100" height="210" as="geometry" />
        </mxCell>
        <mxCell id="MrmqkPRLSG6_IHFLvULn-4" value="" style="html=1;points=[];perimeter=orthogonalPerimeter;outlineConnect=0;targetShapes=umlLifeline;portConstraint=eastwest;newEdgeStyle={&quot;edgeStyle&quot;:&quot;elbowEdgeStyle&quot;,&quot;elbow&quot;:&quot;vertical&quot;,&quot;curved&quot;:0,&quot;rounded&quot;:0};" vertex="1" parent="MrmqkPRLSG6_IHFLvULn-3">
          <mxGeometry x="45" y="120" width="10" height="50" as="geometry" />
        </mxCell>
        <mxCell id="MrmqkPRLSG6_IHFLvULn-22" style="edgeStyle=elbowEdgeStyle;rounded=0;orthogonalLoop=1;jettySize=auto;html=1;elbow=vertical;curved=0;" edge="1" parent="MrmqkPRLSG6_IHFLvULn-3" source="MrmqkPRLSG6_IHFLvULn-4" target="MrmqkPRLSG6_IHFLvULn-4">
          <mxGeometry relative="1" as="geometry" />
        </mxCell>
        <mxCell id="MrmqkPRLSG6_IHFLvULn-23" value="Store(1:200)" style="edgeLabel;html=1;align=center;verticalAlign=middle;resizable=0;points=[];" vertex="1" connectable="0" parent="MrmqkPRLSG6_IHFLvULn-22">
          <mxGeometry x="-0.3171" y="1" relative="1" as="geometry">
            <mxPoint x="14" y="9" as="offset" />
          </mxGeometry>
        </mxCell>
        <mxCell id="MrmqkPRLSG6_IHFLvULn-5" style="edgeStyle=elbowEdgeStyle;rounded=0;orthogonalLoop=1;jettySize=auto;html=1;elbow=vertical;curved=0;" edge="1" parent="1">
          <mxGeometry relative="1" as="geometry">
            <mxPoint x="95" y="103.99714285714289" as="sourcePoint" />
            <mxPoint x="225" y="103.99714285714289" as="targetPoint" />
          </mxGeometry>
        </mxCell>
        <mxCell id="MrmqkPRLSG6_IHFLvULn-7" value="Write(1:200)" style="edgeLabel;html=1;align=center;verticalAlign=middle;resizable=0;points=[];" vertex="1" connectable="0" parent="MrmqkPRLSG6_IHFLvULn-5">
          <mxGeometry x="-0.1155" y="1" relative="1" as="geometry">
            <mxPoint x="8" y="-9" as="offset" />
          </mxGeometry>
        </mxCell>
        <mxCell id="MrmqkPRLSG6_IHFLvULn-9" style="edgeStyle=elbowEdgeStyle;rounded=0;orthogonalLoop=1;jettySize=auto;html=1;elbow=vertical;curved=0;" edge="1" parent="1" target="MrmqkPRLSG6_IHFLvULn-2">
          <mxGeometry relative="1" as="geometry">
            <mxPoint x="240" y="109.99714285714289" as="sourcePoint" />
            <mxPoint x="340" y="110" as="targetPoint" />
          </mxGeometry>
        </mxCell>
        <mxCell id="MrmqkPRLSG6_IHFLvULn-10" value="Replicate(1:200)" style="edgeLabel;html=1;align=center;verticalAlign=middle;resizable=0;points=[];" vertex="1" connectable="0" parent="MrmqkPRLSG6_IHFLvULn-9">
          <mxGeometry x="0.2512" relative="1" as="geometry">
            <mxPoint x="-25" y="-10" as="offset" />
          </mxGeometry>
        </mxCell>
        <mxCell id="MrmqkPRLSG6_IHFLvULn-11" style="edgeStyle=elbowEdgeStyle;rounded=0;orthogonalLoop=1;jettySize=auto;html=1;elbow=vertical;curved=0;" edge="1" parent="1">
          <mxGeometry relative="1" as="geometry">
            <mxPoint x="235" y="170" as="sourcePoint" />
            <mxPoint x="505" y="169.99714285714288" as="targetPoint" />
          </mxGeometry>
        </mxCell>
        <mxCell id="MrmqkPRLSG6_IHFLvULn-12" value="Replicate(1:200)" style="edgeLabel;html=1;align=center;verticalAlign=middle;resizable=0;points=[];" vertex="1" connectable="0" parent="MrmqkPRLSG6_IHFLvULn-11">
          <mxGeometry x="0.2512" relative="1" as="geometry">
            <mxPoint x="-25" y="-10" as="offset" />
          </mxGeometry>
        </mxCell>
        <mxCell id="MrmqkPRLSG6_IHFLvULn-14" style="edgeStyle=elbowEdgeStyle;rounded=0;orthogonalLoop=1;jettySize=auto;html=1;elbow=vertical;curved=0;" edge="1" parent="1">
          <mxGeometry relative="1" as="geometry">
            <mxPoint x="370" y="139.99571428571434" as="sourcePoint" />
            <mxPoint x="235" y="139.99571428571434" as="targetPoint" />
          </mxGeometry>
        </mxCell>
        <mxCell id="MrmqkPRLSG6_IHFLvULn-15" value="Replication Success" style="edgeLabel;html=1;align=center;verticalAlign=middle;resizable=0;points=[];" vertex="1" connectable="0" parent="MrmqkPRLSG6_IHFLvULn-14">
          <mxGeometry x="-0.2734" y="-1" relative="1" as="geometry">
            <mxPoint x="-16" y="-7" as="offset" />
          </mxGeometry>
        </mxCell>
        <mxCell id="MrmqkPRLSG6_IHFLvULn-20" style="edgeStyle=elbowEdgeStyle;rounded=0;orthogonalLoop=1;jettySize=auto;html=1;elbow=vertical;curved=0;" edge="1" parent="1">
          <mxGeometry relative="1" as="geometry">
            <mxPoint x="505" y="208.8571428571429" as="sourcePoint" />
            <mxPoint x="235" y="208.8571428571429" as="targetPoint" />
          </mxGeometry>
        </mxCell>
        <mxCell id="MrmqkPRLSG6_IHFLvULn-21" value="Replication Success" style="edgeLabel;html=1;align=center;verticalAlign=middle;resizable=0;points=[];" vertex="1" connectable="0" parent="MrmqkPRLSG6_IHFLvULn-20">
          <mxGeometry x="-0.2734" y="-1" relative="1" as="geometry">
            <mxPoint x="-16" y="-7" as="offset" />
          </mxGeometry>
        </mxCell>
        <mxCell id="MrmqkPRLSG6_IHFLvULn-24" style="edgeStyle=elbowEdgeStyle;rounded=0;orthogonalLoop=1;jettySize=auto;html=1;elbow=vertical;curved=0;" edge="1" parent="1">
          <mxGeometry relative="1" as="geometry">
            <mxPoint x="225" y="219.99714285714288" as="sourcePoint" />
            <mxPoint x="95" y="219.99714285714288" as="targetPoint" />
          </mxGeometry>
        </mxCell>
        <mxCell id="MrmqkPRLSG6_IHFLvULn-25" value="Write Success" style="edgeLabel;html=1;align=center;verticalAlign=middle;resizable=0;points=[];" vertex="1" connectable="0" parent="MrmqkPRLSG6_IHFLvULn-24">
          <mxGeometry x="-0.3059" y="1" relative="1" as="geometry">
            <mxPoint x="-20" y="-11" as="offset" />
          </mxGeometry>
        </mxCell>
      </root>
    </mxGraphModel>
  </diagram>
</mxfile>
